<?xml version="1.0" encoding="UTF-8"?>
<svg id="Capa_2" xmlns="http://www.w3.org/2000/svg" xmlns:xlink="http://www.w3.org/1999/xlink" viewBox="0 0 231.71 34.49">
  <defs>
    <style>
      .cls-1 {
        fill: #2ad1c9;
      }

      .cls-2 {
        fill: #dee6ec;
      }

      .cls-3 {
        fill: url(#Degradado_sin_nombre_22);
      }

      .cls-4 {
        fill: url(#Degradado_sin_nombre_136);
      }
    </style>
    <radialGradient id="Degradado_sin_nombre_136" data-name="Degradado sin nombre 136" cx="179.54" cy="35.79" fx="179.54" fy="35.79" r="20.93" gradientUnits="userSpaceOnUse">
      <stop offset="0" stop-color="#0862c8"/>
      <stop offset=".08" stop-color="#0b6dc8"/>
      <stop offset=".51" stop-color="#1ba2c8"/>
      <stop offset=".83" stop-color="#26c4c8"/>
      <stop offset="1" stop-color="#2ad1c9"/>
    </radialGradient>
    <radialGradient id="Degradado_sin_nombre_22" data-name="Degradado sin nombre 22" cx="181.15" cy=".37" fx="181.15" fy=".37" r="31.71" gradientUnits="userSpaceOnUse">
      <stop offset="0" stop-color="#0c171a"/>
      <stop offset=".14" stop-color="#2f393d"/>
      <stop offset=".45" stop-color="#798287"/>
      <stop offset=".7" stop-color="#afb8bd"/>
      <stop offset=".9" stop-color="#d1d9df"/>
      <stop offset="1" stop-color="#dee6ec"/>
    </radialGradient>
  </defs>
  <g id="Capa_1-2" data-name="Capa_1">
    <g>
      <path class="cls-2" d="M20.02,7.23V2.27H.04l-.04,31.86h5.5v-13.7h10.74v-4.96H5.5V7.23h14.52Z"/>
      <path class="cls-2" d="M25.28,11.37c-4.37,0-6.65,2.6-6.65,6.19v16.57h5.46v-15.93c0-1.09.55-1.82,2.01-1.82h6v-5.01h-6.82Z"/>
      <path class="cls-2" d="M44.11,10.92c-8.37,0-12.06,5.87-12.06,11.79s3.69,11.78,12.06,11.78,12.06-5.87,12.06-11.78-3.68-11.79-12.06-11.79ZM44.11,29.49c-8.83,0-8.83-13.56,0-13.56s8.78,13.56,0,13.56Z"/>
      <path class="cls-2" d="M68.79,11.06c-6.68,0-10.51,4.05-10.51,10.78v12.29h5.46v-13.06c0-3.01,2.1-5.01,5.05-5.01s5.06,2,5.06,5.01v13.06h5.46v-12.29c0-6.73-3.83-10.78-10.52-10.78Z"/>
      <path class="cls-2" d="M92.47,16.38v-5.01h-4.77V2.27h-5.46v21.21c0,7.01,4.09,10.97,10.23,10.97v-5.01c-3.18,0-4.73-2.55-4.73-5.64v-7.42h4.73Z"/>
      <path class="cls-2" d="M95.74,16.83v17.3h5.46V11.37c-3.02,0-5.46,2.45-5.46,5.46Z"/>
      <path class="cls-2" d="M115.16,29.49c-3.74,0-5.87-2.37-6.51-5.1h17.97c.05-.55.14-1.14.14-1.68,0-5.92-3.69-11.79-11.6-11.79-8.38,0-12.06,5.87-12.06,11.79s3.68,11.78,12.06,11.78c6.69,0,10.42-3.78,11.6-8.33h-5.73c-1,1.91-3.01,3.33-5.87,3.33ZM115.16,15.93c2.86,0,4.82,1.68,5.68,3.91h-11.83c.91-2.19,2.96-3.91,6.15-3.91Z"/>
      <path class="cls-2" d="M135.89,11.37c-4.36,0-6.64,2.6-6.64,6.19v16.57h5.46v-15.93c0-1.09.55-1.82,2-1.82h6.01v-5.01h-6.83Z"/>
      <path class="cls-2" d="M154.78,29.49c-8.83,0-8.83-13.56,0-13.56.95,0,3.18.13,3.91.41l2.51-4.56c-1.46-.54-4.46-.86-6.42-.86-8.37,0-12.06,5.87-12.06,11.79s3.69,11.78,12.06,11.78c1.96,0,4.96-.32,6.42-.86l-2.51-4.55c-.73.27-2.96.41-3.91.41Z"/>
      <path class="cls-2" d="M200.45,0v11.37h-5.74c-5.35,0-8.91,2.25-10.7,5.64l2.19,2.67c.05.05.1.11.14.17.64.86.97,1.86.97,2.87s-.33,2.01-.94,2.84c-.02.02-1.11,1.35-2.4,2.92,1.74,3.43,5.22,5.97,10.47,5.97,2.05,0,4.23-.41,6.01-1.55v1.27h5.46V0h-5.46ZM200.45,23.75c0,2.46-1.23,5.69-5.42,5.69-9.1,0-9.05-13.06-.96-13.06h6.38v7.37Z"/>
      <path class="cls-2" d="M220.11,29.49c-3.74,0-5.87-2.37-6.51-5.1h17.97c.05-.55.14-1.14.14-1.68,0-5.92-3.69-11.79-11.6-11.79-8.38,0-12.06,5.87-12.06,11.79s3.68,11.78,12.06,11.78c6.68,0,10.42-3.78,11.6-8.33h-5.73c-1.01,1.91-3.01,3.33-5.87,3.33ZM220.11,15.93c2.86,0,4.82,1.68,5.68,3.91h-11.83c.91-2.19,2.96-3.91,6.15-3.91Z"/>
      <path class="cls-1" d="M98.44,2.28c-1.73,0-2.92,1.14-2.92,2.92s1.19,2.91,2.92,2.91,2.97-1.18,2.97-2.91-1.19-2.92-2.97-2.92Z"/>
      <path class="cls-4" d="M185.35,22.72c0,.61-.19,1.19-.55,1.68l-.09.1-1.56,1.9-4.28,5.22-.45.55-4.72-5.75,2.23-2.72s.03-.04.04-.05l.07-.09s.04-.05.06-.08c.15-.22.22-.48.22-.76,0-.31-.1-.62-.29-.86,0,0-.03-.03-.04-.05l-.07-.06-3.83-4.68s-.03-.04-.04-.05l-.45-.55-.18-.21-3.99-4.87c.14-.02.28-.04.42-.05h7.72c.35.02.7.11,1.03.25.4.18.75.43,1.04.74l.25.31s.02.03.03.04l.95,1.15,4.3,5.24,1.54,1.87s.02.03.04.04c.02.03.04.06.07.09.34.46.53,1.04.53,1.65Z"/>
      <path class="cls-3" d="M175.99,34.05c-.21.04-.42.06-.64.06h-7.29c-.44,0-.86-.09-1.26-.27-.41-.17-.77-.43-1.07-.76-.06-.07-.13-.15-.19-.23l-6.85-8.35-.11-.13c-.34-.47-.54-1.05-.54-1.65s.19-1.18.56-1.68c0,0,.03-.04.05-.06l5.87-7.15.45-.56,4.73,5.76-2.23,2.72s-.04.04-.06.06c0,0-.04.05-.05.06-.19.25-.3.55-.3.86,0,.28.08.54.23.76.01.03.03.05.05.08,0,0,.08.1.09.1,0,0,.02.02.03.03l3.84,4.69.67.8,3.99,4.86Z"/>
    </g>
  </g>
</svg>