<?xml version="1.0" encoding="UTF-8"?>
<svg id="Capa_2" xmlns="http://www.w3.org/2000/svg" viewBox="0 0 235.53 34.12">
  <defs>
    <style>
      .cls-1 {
        fill: #0c171a;
      }
    </style>
  </defs>
  <g id="Capa_1-2" data-name="Capa_1">
    <g>
      <g>
        <path class="cls-1" d="M45.93,4.21h16.11v4h-11.71v6.64h8.66v4h-8.66v11.05h-4.44l.04-25.69Z"/>
        <path class="cls-1" d="M60.92,29.91v-13.36c0-2.9,1.83-4.99,5.36-4.99h5.51v4.04h-4.85c-1.17,0-1.61.59-1.61,1.47v12.85h-4.4Z"/>
        <path class="cls-1" d="M71.75,20.69c0-4.77,2.97-9.51,9.73-9.51s9.72,4.73,9.72,9.51-2.97,9.51-9.72,9.51-9.73-4.74-9.73-9.51ZM81.47,26.16c7.08,0,7.08-10.94,0-10.94s-7.12,10.94,0,10.94Z"/>
        <path class="cls-1" d="M109.86,20v9.91h-4.4v-10.53c0-2.42-1.69-4.04-4.07-4.04s-4.07,1.61-4.07,4.04v10.53h-4.4v-9.91c0-5.43,3.08-8.7,8.48-8.7s8.48,3.27,8.48,8.7Z"/>
        <path class="cls-1" d="M120.48,30.16c-4.95,0-8.26-3.19-8.26-8.85V4.21h4.4v7.34h3.85v4.04h-3.82v5.98c0,2.5,1.25,4.55,3.82,4.55v4.04Z"/>
        <path class="cls-1" d="M127.51,11.55h0v18.35h-4.4v-13.95c0-2.43,1.97-4.4,4.4-4.4Z"/>
        <path class="cls-1" d="M148.13,23.48c-.95,3.67-3.96,6.72-9.36,6.72-6.75,0-9.73-4.74-9.73-9.51s2.97-9.51,9.73-9.51c6.39,0,9.36,4.73,9.36,9.51,0,.44-.07.92-.11,1.36h-14.5c.51,2.2,2.24,4.11,5.25,4.11,2.31,0,3.93-1.14,4.73-2.68h4.62ZM143.36,18.38c-.7-1.8-2.28-3.16-4.59-3.16-2.57,0-4.22,1.39-4.96,3.16h9.54Z"/>
        <path class="cls-1" d="M150.14,29.91v-13.36c0-2.9,1.83-4.99,5.36-4.99h5.51v4.04h-4.85c-1.17,0-1.61.59-1.61,1.47v12.85h-4.4Z"/>
        <path class="cls-1" d="M173.89,25.83l2.02,3.67c-1.18.44-3.6.7-5.17.7-6.75,0-9.73-4.74-9.73-9.51s2.97-9.51,9.73-9.51c1.58,0,4,.26,5.17.7l-2.02,3.67c-.59-.22-2.39-.33-3.16-.33-7.12,0-7.12,10.94,0,10.94.77,0,2.57-.11,3.16-.33Z"/>
        <path class="cls-1" d="M175.34,20.69c0-4.77,2.97-9.51,9.73-9.51s9.72,4.73,9.72,9.51-2.97,9.51-9.72,9.51-9.73-4.74-9.73-9.51ZM185.07,26.16c7.08,0,7.08-10.94,0-10.94s-7.12,10.94,0,10.94Z"/>
        <path class="cls-1" d="M210.11,11.55V2.38h4.4v27.56h-4.4v-1.03c-1.43.92-3.19,1.25-4.84,1.25-6.39,0-9.54-4.66-9.51-9.43.04-5.1,3.27-9.18,9.73-9.18h4.62ZM210.11,21.54v-5.95h-5.14c-6.53,0-6.57,10.53.77,10.53,3.38,0,4.37-2.61,4.37-4.59Z"/>
        <path class="cls-1" d="M235.53,23.48c-.95,3.67-3.96,6.72-9.36,6.72-6.75,0-9.73-4.74-9.73-9.51s2.97-9.51,9.73-9.51c6.39,0,9.36,4.73,9.36,9.51,0,.44-.07.92-.11,1.36h-14.5c.51,2.2,2.24,4.11,5.25,4.11,2.31,0,3.93-1.14,4.73-2.68h4.62ZM230.76,18.38c-.7-1.8-2.28-3.16-4.59-3.16-2.57,0-4.22,1.39-4.96,3.16h9.54Z"/>
        <path class="cls-1" d="M125.29,4.22c-1.39,0-2.36.93-2.36,2.36s.96,2.34,2.36,2.34,2.39-.95,2.39-2.34-.96-2.36-2.39-2.36Z"/>
      </g>
      <g>
        <path class="cls-1" d="M40.61,17.05c0,1.07-.35,2.04-.93,2.83l-.15.18-4.53,5.52-3.85,4.69-1.21,1.46-7.69-9.37,3.6-4.39s.03-.03.04-.04l.11-.13s0-.01,0-.02c.14-.2.22-.45.22-.73,0-.3-.1-.58-.27-.8-.04-.04-.07-.08-.11-.11l-3.6-4.39-1.94-2.37h-.01s-.69-.85-.69-.85l-.26-.31L12.97.44h0c.55-.25,1.14-.4,1.77-.44h11.13c.63.04,1.23.19,1.77.43.66.29,1.24.7,1.72,1.22.02.02.03.03.05.05l.36.45s.02.02.02.03l1.37,1.66,3.85,4.69,4.53,5.52c.05.05.1.11.15.17.58.79.93,1.77.93,2.83Z"/>
        <path class="cls-1" d="M27.66,33.67c-.64.29-1.36.45-2.11.45h-10.46c-.75,0-1.46-.16-2.1-.45-.68-.29-1.28-.73-1.77-1.27-.11-.12-.22-.25-.32-.39l-1.43-1.74-3.85-4.69-4.53-5.52c-.05-.06-.1-.12-.15-.18-.58-.79-.94-1.76-.94-2.83s.36-2.04.94-2.83c.05-.06.1-.12.15-.17l4.53-5.52,3.85-4.69,1.2-1.47,7.7,9.38-3.6,4.39s-.07.07-.11.11c-.17.22-.28.5-.28.8,0,.28.09.53.23.73,0,.01.01.01.01.02l.11.13s.02.03.04.04l3.6,4.4,1.94,2.37h0s.69.84.69.84l.26.31,6.38,7.77h.01Z"/>
      </g>
    </g>
  </g>
</svg>