<?xml version="1.0" encoding="UTF-8"?>
<svg id="Capa_2" xmlns="http://www.w3.org/2000/svg" viewBox="0 0 156.55 131.53">
  <defs>
    <style>
      .cls-1 {
        fill: #0c171a;
      }
    </style>
  </defs>
  <g id="Capa_1-2" data-name="Capa_1">
    <g>
      <path class="cls-1" d="M156.55,65.73c0,4.12-1.35,7.86-3.59,10.91l-.58.69-17.46,21.28-14.84,18.08-4.66,5.63-29.64-36.12,13.88-16.92c.08-.04.11-.12.15-.15l.42-.5s.04-.04.04-.08c.54-.77.85-1.73.85-2.81,0-1.16-.39-2.24-1.04-3.08-.15-.15-.27-.31-.42-.42l-13.88-16.92-7.48-9.14-.04-.04-2.66-3.24-1-1.2L50,1.7l-.04-.04c2.12-.93,4.4-1.5,6.82-1.66h42.9c2.43.15,4.74.73,6.82,1.66,2.54,1.12,4.78,2.7,6.63,4.7.08.08.11.12.19.19l1.39,1.73s.08.08.08.12l5.28,6.4,14.84,18.08,17.46,21.28c.19.19.39.42.58.66,2.24,3.05,3.59,6.82,3.59,10.91Z"/>
      <path class="cls-1" d="M106.63,129.79c-2.47,1.12-5.24,1.73-8.14,1.73h-40.32c-2.89,0-5.63-.62-8.09-1.73-2.62-1.12-4.94-2.81-6.83-4.9-.42-.46-.85-.96-1.23-1.5l-5.51-6.71-14.84-18.08-17.46-21.28c-.19-.23-.38-.46-.58-.69-2.24-3.05-3.62-6.78-3.62-10.91s1.39-7.86,3.62-10.91c.19-.23.39-.46.58-.66l17.46-21.28,14.84-18.08,4.63-5.67,29.68,36.16-13.88,16.92c-.15.12-.27.27-.42.42-.66.85-1.08,1.93-1.08,3.08,0,1.08.35,2.04.89,2.81,0,.04.04.04.04.08l.42.5s.08.12.15.15l13.88,16.96,7.48,9.14.04.04,2.66,3.2,1,1.19,24.59,29.95.04.04Z"/>
    </g>
  </g>
</svg>