<?xml version="1.0" encoding="UTF-8"?>
<svg id="Capa_2" xmlns="http://www.w3.org/2000/svg" viewBox="0 0 102.51 124.5">
  <defs>
    <style>
      .cls-1 {
        fill: #0862c8;
      }
    </style>
  </defs>
  <g id="Capa_1-2" data-name="Capa_1">
    <path class="cls-1" d="M98.81,51.91c4.94,6.01,4.94,14.68,0,20.69l-17.07,20.77-14.04,17.11-5.24,6.36c-.05.07-.11.15-.16.2l-.85,1.05c-.05.05-.11.11-.14.16-1.79,1.98-3.99,3.55-6.45,4.64-2.36,1.03-4.95,1.61-7.68,1.61H0l1.32-1.61,23.32-28.39.92-1.12,2.52-3.06,20.57-25.04,2.48-3.01-2.21-2.68c-.07-.11-.16-.2-.24-.31-.02-.04-.04-.05-.07-.07l-20.53-25.01-2.52-3.06-.94-1.14L1.3,1.58,0,0h48.4c2.3.15,4.48.71,6.47,1.59,2.37,1.03,4.51,2.55,6.25,4.44l1.49,1.79,5.09,6.2,14.04,17.11,16,19.5c.38.42.72.83,1.07,1.29h0Z"/>
  </g>
</svg>